<?xml version="1.0" encoding="utf-8"?>
<!-- Generator: Adobe Illustrator 22.1.0, SVG Export Plug-In . SVG Version: 6.00 Build 0)  -->
<svg version="1.1" id="Layer_1" xmlns="http://www.w3.org/2000/svg" xmlns:xlink="http://www.w3.org/1999/xlink" x="0px" y="0px"
	 viewBox="0 0 720.3 144.2" style="enable-background:new 0 0 720.3 144.2;" xml:space="preserve">
<style type="text/css">
	.st0{fill:#6ECEEE;}
	.st1{fill:#96D9F2;}
	.st2{fill:#E53143;}
	.st3{fill:#38C5EB;}
	.st4{fill:#FFFFFF;}
</style>
<g>
	<g>
		<polygon class="st0" points="99.6,96 99.6,96 66.3,48 66.3,48 66.3,48 33.2,0 0,48 0,48 33.2,96 33.2,96 33.2,96 33.2,96 33.2,96 
			66.3,144 		"/>
	</g>
	<polygon class="st1" points="166,96 132.8,48 132.8,48 132.8,48 99.6,0 66.3,48 66.3,48 99.5,95.9 99.5,96 132.7,143.9 
		199.1,143.9 	"/>
	<polygon class="st2" points="165.8,48 132.7,0 199,0 	"/>
	<polygon class="st3" points="132.8,48 132.8,48 99.6,0 66.3,48 66.3,48 33.2,96 33.2,96 66.3,144 99.6,96 99.6,96 	"/>
</g>
<g>
	<path class="st4" d="M313.9,144.2h-17.4l-31.8-90.7c0.9,4.5,1.3,7.9,1.3,10.5v80.3h-19.5V0.1H264L295.8,89
		c-0.9-4.5-1.3-7.9-1.3-10.5V0.1h19.5L313.9,144.2L313.9,144.2z"/>
	<path class="st4" d="M400.9,144.2h-55.2V0.1h54.6v19.1h-34.8v42.1h29.9V80h-29.9v45.3h35.4L400.9,144.2L400.9,144.2z"/>
	<path class="st4" d="M486.6,19.2h-21.9v125h-19.8v-125h-22.1V0.1h63.6v19.1H486.6z"/>
	<path class="st4" d="M532.3,144.2h-19.8V0.1h19.8V144.2z"/>
	<path class="st4" d="M634.1,144.2h-17.4l-31.8-90.7c0.9,4.5,1.3,7.9,1.3,10.5v80.3h-19.6V0.1h17.4L615.7,89
		c-0.9-4.5-1.3-7.9-1.3-10.5V0.1h19.5v144.1L634.1,144.2L634.1,144.2z"/>
	<path class="st4" d="M720.3,19.2h-21.9v125h-19.8v-125h-21.9V0.1h63.6L720.3,19.2L720.3,19.2z"/>
</g>
</svg>
